<svg xmlns="http://www.w3.org/2000/svg" width="30" height="25" viewBox="0 0 30 25">
  <path fill="#E88E38" fill-rule="evenodd" d="M734.495813,1897.64194 C734.599045,1895.44343 732.772744,1895.00966 731.305705,1895.36987 C729.992725,1895.69157 728.880844,1896.41293 727.824525,1897.19397 C724.705764,1899.49855 722.151152,1902.02601 720.473228,1905.47499 C720.410089,1905.60379 720.130698,1906.14111 720,1906.35136 C719.869302,1906.14111 719.589911,1905.60379 719.526772,1905.47499 C717.848848,1902.02601 715.294236,1899.49855 712.175475,1897.19397 C711.119156,1896.41293 710.007275,1895.69157 708.694295,1895.36987 C707.227256,1895.00966 705.400955,1895.44343 705.504187,1897.64194 C705.547122,1898.57514 705.496926,1899.28103 705.541755,1900.21391 C705.629834,1902.02538 705.720439,1903.83842 706.295321,1905.58832 C706.771391,1907.03421 707.641765,1908.1603 709.168786,1908.69256 C709.831432,1908.92333 710.537328,1909.05687 711.233754,1909.17873 C711.825684,1909.28196 712.433714,1909.30533 712.87853,1909.34889 C712.035306,1909.72994 711.0235,1910.04184 710.19101,1910.59842 C708.93233,1911.43817 708.12257,1912.70663 708.56928,1914.17399 C709.228453,1916.33998 710.645928,1918.05579 712.770562,1919.1522 C713.55917,1919.56008 714.3301,1919.53135 715.111448,1919.06633 C716.889132,1918.00906 718.202743,1916.59601 719.129942,1914.87989 L716.119149,1911.51046 C715.159433,1910.50087 715.134178,1908.94796 716.119149,1907.93963 C717.102858,1906.97423 718.704068,1907.13428 719.68683,1908.09968 L719.997159,1908.43053 L719.997159,1908.43622 L720,1908.43337 L720.002841,1908.43622 L720.002841,1908.43053 L720.31317,1908.09968 C721.295932,1907.13428 722.897142,1906.97423 723.880851,1907.93963 C724.865822,1908.94796 724.840567,1910.50087 723.880851,1911.51046 L720.870058,1914.87989 C721.797257,1916.59601 723.110868,1918.00906 724.888552,1919.06633 C725.6699,1919.53135 726.44083,1919.56008 727.229438,1919.1522 C729.354072,1918.05579 730.771547,1916.33998 731.43072,1914.17399 C731.87743,1912.70663 731.06767,1911.43817 729.80899,1910.59842 C728.9765,1910.04184 727.964694,1909.72994 727.12147,1909.34889 C727.566286,1909.30533 728.174316,1909.28196 728.766246,1909.17873 C729.462672,1909.05687 730.168568,1908.92333 730.831214,1908.69256 C732.358235,1908.1603 733.228609,1907.03421 733.704679,1905.58832 C734.279561,1903.83842 734.370166,1902.02538 734.458245,1900.21391 C734.503074,1899.28103 734.452878,1898.57514 734.495813,1897.64194" transform="translate(-705 -1895)"/>
</svg>
