<svg xmlns="http://www.w3.org/2000/svg" width="72" height="45" viewBox="0 0 72 45" xmlns:xlink="http://www.w3.org/1999/xlink">
  <defs>
    <path id="a" d="M13.3293444,40.5096802 L1.53921342,40.5096802 C0.689129323,40.5096802 0,39.8365588 0,39.0058136 L0,1.7774907 C0,0.946928135 0.687042444,0.273624141 1.53834657,0.273624141 L27.5161169,0.273624141 L65.7479802,0.273624141 C66.5972183,0.273624141 67.2856618,0.947354751 67.2856618,1.77828563 L67.2856618,19.0481469 L67.2856618,39.0048144 C67.2856618,39.8359288 66.5957338,40.5096802 65.7481003,40.5096802 L36.1985388,40.5096802"/>
  </defs>
  <g fill="none" fill-rule="evenodd" transform="translate(2 2)">
    <g stroke-linecap="round">
      <use fill="#FFFFFF" xlink:href="#a"/>
      <path stroke="#1D1D1D" stroke-width="2" d="M13.3293444,41.5096802 L36.1985388,41.5096802 L65.7481003,41.5096802 C67.1436454,41.5096802 68.2856618,40.3927202 68.2856618,39.0048144 L68.2856618,19.0481469 L68.2856618,1.77828563 C68.2856618,0.39013605 67.1446849,-0.726375859 65.7479802,-0.726375859 L27.5161169,-0.726375859 L1.53834657,-0.726375859 C0.140187902,-0.726375859 -1,0.389107105 -1,1.7774907 L-1,39.0058136 C-1,40.3940662 0.14193116,41.5096802 1.53921342,41.5096802 L13.3293444,41.5096802 Z"/>
    </g>
    <path stroke="#434343" stroke-width="2" d="M3.84489496,9.05031746 L63.1523997,9.05031746" stroke-linecap="round"/>
    <ellipse cx="5.96" cy="4.41" fill="#ED9136" stroke="#434343" stroke-width="1.361" rx="1.346" ry="1.316"/>
    <ellipse cx="12.496" cy="4.41" fill="#ED9136" stroke="#434343" stroke-width="1.361" rx="1.346" ry="1.316"/>
    <ellipse cx="19.032" cy="4.41" fill="#ED9136" stroke="#434343" stroke-width="1.361" rx="1.346" ry="1.316"/>
    <path stroke="#1D1D1D" stroke-width="1.361" d="M31.1865732,20.5595774 C30.7967374,21.0859186 30.5669149,21.7330326 30.5669149,22.4326445 C30.5669149,24.1979245 32.0301203,25.6289667 33.8350756,25.6289667 C35.640031,25.6289667 37.1032363,24.1979245 37.1032363,22.4326445 C37.1032363,21.6299449 36.8006954,20.8963543 36.3010522,20.3349937 C35.7755291,19.7445565 35.0319565,19.3446533 34.1930207,19.2552737" stroke-linecap="round"/>
    <rect width="10.766" height="10.529" x="28.452" y="22.433" fill="#ED9136" stroke="#1D1D1D" stroke-width="1.361" rx="2.722"/>
    <rect width="1" height="3.76" x="33.451" y="25.817" fill="#434343" rx=".5"/>
    <path stroke="#434343" stroke-width="2" d="M19.6647114,41.7017763 L29.0310268,41.7017763" stroke-linecap="round"/>
    <path stroke="#434343" stroke-width="2.268" d="M4.8693571 41.4497749L15.3572032 41.4497749M33.7109338 41.4497749L44.1987798 41.4497749" stroke-linecap="round"/>
    <path stroke="#1D1D1D" stroke-width="1.701" d="M43.6428413,20.7400561 L45.4204541,19.6862126" stroke-linecap="round"/>
    <path stroke="#1D1D1D" stroke-width="1.701" d="M23.3797614,20.2713368 L25.970927,18.7351851" stroke-linecap="round" transform="matrix(-1 0 0 1 49.35 0)"/>
    <path stroke="#1D1D1D" stroke-width="1.701" d="M47.6941401 18.2800546L47.437871 18.4319817M39.8478116 15.3929615L41.471952 12.6554224" stroke-linecap="round"/>
    <path stroke="#1D1D1D" stroke-width="1.701" d="M27.9883439,15.3929615 L29.6124842,12.6554224" stroke-linecap="round" transform="matrix(-1 0 0 1 57.6 0)"/>
  </g>
</svg>
