<svg xmlns="http://www.w3.org/2000/svg" xmlns:xlink="http://www.w3.org/1999/xlink" width="0" height="0" style="position:absolute"><symbol viewBox="0 0 12 7" id="shape-arrow"><path d="M10.524.252a.824.824 0 0 1 1.187 1.142L6.564 6.747a.824.824 0 0 1-1.188 0L.23 1.394A.824.824 0 1 1 1.417.252L5.97 4.988 10.524.252z"/></symbol><symbol viewBox="0 0 30 25" id="shape-logo-darujme"><path fill="#E88E38" fill-rule="evenodd" d="M29.496 2.642C29.599.443 27.773.01 26.306.37c-1.313.322-2.425 1.043-3.481 1.824-3.12 2.305-5.674 4.832-7.352 8.281-.063.129-.342.666-.473.876-.13-.21-.41-.747-.473-.876-1.678-3.449-4.233-5.976-7.352-8.281C6.12 1.413 5.007.692 3.695.37 2.226.01.4.443.504 2.642c.042.933-.008 1.639.037 2.572.088 1.811.178 3.624.753 5.374.476 1.446 1.347 2.572 2.874 3.105.662.23 1.368.364 2.065.486.592.103 1.2.126 1.645.17-.844.38-1.855.693-2.688 1.25-1.259.84-2.068 2.108-1.622 3.575.66 2.166 2.077 3.882 4.202 4.978.788.408 1.56.38 2.34-.086a10.69 10.69 0 0 0 4.019-4.186l-3.01-3.37c-.96-1.01-.986-2.562 0-3.57.983-.966 2.584-.806 3.567.16l.31.33v.006l.003-.003.003.003v-.005l.31-.331c.983-.966 2.584-1.126 3.568-.16.985 1.008.96 2.56 0 3.57l-3.01 3.37a10.69 10.69 0 0 0 4.018 4.186c.78.465 1.552.494 2.34.086 2.125-1.096 3.543-2.812 4.202-4.978.446-1.467-.363-2.736-1.622-3.576-.833-.556-1.844-.868-2.688-1.25.445-.043 1.053-.066 1.645-.17.697-.121 1.403-.255 2.065-.485 1.527-.533 2.398-1.659 2.874-3.105.575-1.75.665-3.563.753-5.374.045-.933-.005-1.639.038-2.572"/></symbol><symbol viewBox="0 0 72 45" id="shape-projects-icon"><defs><path id="ca" d="M13.33 40.51H1.54c-.85 0-1.54-.673-1.54-1.504V1.777C0 .947.687.274 1.538.274H65.748c.85 0 1.538.673 1.538 1.504V39.005c0 .83-.69 1.505-1.538 1.505h-29.55"/></defs><g fill="none" fill-rule="evenodd" transform="translate(2 2)"><g stroke-linecap="round"><use fill="#FFF" xlink:href="#ca"/><path stroke="#1D1D1D" stroke-width="2" d="M13.33 41.51h52.419c1.395 0 2.537-1.117 2.537-2.505V1.778c0-1.388-1.141-2.504-2.538-2.504H1.538C.14-.726-1 .389-1 1.777v37.229c0 1.388 1.142 2.504 2.54 2.504h11.79z"/></g><path stroke="#434343" stroke-width="2" d="M3.845 9.05h59.307" stroke-linecap="round"/><ellipse cx="5.96" cy="4.41" fill="#ED9136" stroke="#434343" stroke-width="1.361" rx="1.346" ry="1.316"/><ellipse cx="12.496" cy="4.41" fill="#ED9136" stroke="#434343" stroke-width="1.361" rx="1.346" ry="1.316"/><ellipse cx="19.032" cy="4.41" fill="#ED9136" stroke="#434343" stroke-width="1.361" rx="1.346" ry="1.316"/><path stroke="#1D1D1D" stroke-width="1.361" d="M31.187 20.56a3.135 3.135 0 0 0-.62 1.873c0 1.765 1.463 3.196 3.268 3.196 1.805 0 3.268-1.431 3.268-3.196 0-.803-.302-1.537-.802-2.098a3.285 3.285 0 0 0-2.108-1.08" stroke-linecap="round"/><rect width="10.766" height="10.529" x="28.452" y="22.433" fill="#ED9136" stroke="#1D1D1D" stroke-width="1.361" rx="2.722"/><rect width="1" height="3.76" x="33.451" y="25.817" fill="#434343" rx=".5"/><path stroke="#434343" stroke-width="2" d="M19.665 41.702h9.366" stroke-linecap="round"/><path stroke="#434343" stroke-width="2.268" d="M4.87 41.45h10.487m18.354 0h10.488" stroke-linecap="round"/><path stroke="#1D1D1D" stroke-width="1.701" d="M43.643 20.74l1.777-1.054M25.97 20.271l-2.59-1.536M47.694 18.28l-.256.152m-7.59-3.039l1.624-2.738M29.612 15.393l-1.624-2.738" stroke-linecap="round"/></g></symbol></svg>